<svg width="16" height="16" viewBox="0 0 16 16" fill="none" xmlns="http://www.w3.org/2000/svg">
<path d="M8 15.1826C6.96973 15.1826 6.00293 14.9873 5.09961 14.5967C4.19629 14.2109 3.40283 13.6763 2.71924 12.9927C2.03564 12.3042 1.49854 11.5107 1.10791 10.6123C0.722168 9.70898 0.529297 8.74219 0.529297 7.71191C0.529297 6.68164 0.722168 5.71484 1.10791 4.81152C1.49854 3.9082 2.03564 3.11475 2.71924 2.43115C3.40283 1.74756 4.19629 1.21289 5.09961 0.827148C6.00293 0.436523 6.96973 0.241211 8 0.241211C9.03027 0.241211 9.99707 0.436523 10.9004 0.827148C11.8037 1.21289 12.5972 1.74756 13.2808 2.43115C13.9644 3.11475 14.499 3.9082 14.8848 4.81152C15.2754 5.71484 15.4707 6.68164 15.4707 7.71191C15.4707 8.74219 15.2754 9.70898 14.8848 10.6123C14.499 11.5107 13.9644 12.3042 13.2808 12.9927C12.5972 13.6763 11.8037 14.2109 10.9004 14.5967C9.99707 14.9873 9.03027 15.1826 8 15.1826ZM6.27148 11.4546C6.36914 11.5474 6.50098 11.5913 6.66699 11.5864C6.83301 11.5815 6.96973 11.5278 7.07715 11.4253L10.2192 8.46631C10.3657 8.33447 10.4609 8.17822 10.5049 7.99756C10.5537 7.81201 10.5537 7.62891 10.5049 7.44824C10.4609 7.2627 10.3657 7.104 10.2192 6.97217L7.07715 4.02051C6.95996 3.9082 6.82324 3.84961 6.66699 3.84473C6.51562 3.83496 6.38623 3.88379 6.27881 3.99121C6.16162 4.10352 6.10059 4.24023 6.0957 4.40137C6.09082 4.5625 6.14697 4.69678 6.26416 4.8042L9.36963 7.71924L6.26416 10.6416C6.15186 10.749 6.0957 10.8833 6.0957 11.0444C6.0957 11.2007 6.1543 11.3374 6.27148 11.4546Z" fill="#E5E5EA"/>
</svg>
