<svg width="16" height="16" viewBox="0 0 16 16" fill="none" xmlns="http://www.w3.org/2000/svg">
<path d="M8 15.1826C6.96973 15.1826 6.00293 14.9873 5.09961 14.5967C4.19629 14.2109 3.40283 13.6763 2.71924 12.9927C2.03564 12.3042 1.49854 11.5107 1.10791 10.6123C0.722168 9.70898 0.529297 8.74219 0.529297 7.71191C0.529297 6.68164 0.722168 5.71484 1.10791 4.81152C1.49854 3.9082 2.03564 3.11475 2.71924 2.43115C3.40283 1.74756 4.19629 1.21289 5.09961 0.827148C6.00293 0.436523 6.96973 0.241211 8 0.241211C9.03027 0.241211 9.99707 0.436523 10.9004 0.827148C11.8037 1.21289 12.5972 1.74756 13.2808 2.43115C13.9644 3.11475 14.499 3.9082 14.8848 4.81152C15.2754 5.71484 15.4707 6.68164 15.4707 7.71191C15.4707 8.74219 15.2754 9.70898 14.8848 10.6123C14.499 11.5107 13.9644 12.3042 13.2808 12.9927C12.5972 13.6763 11.8037 14.2109 10.9004 14.5967C9.99707 14.9873 9.03027 15.1826 8 15.1826ZM9.4502 11.3301C9.5625 11.2227 9.61865 11.0908 9.61865 10.9346C9.61865 10.7783 9.56494 10.6489 9.45752 10.5464L6.44727 7.71191L9.45752 4.88477C9.56982 4.77734 9.62354 4.64551 9.61865 4.48926C9.61377 4.33301 9.55518 4.20361 9.44287 4.10107C9.34033 3.99854 9.21338 3.94971 9.06201 3.95459C8.91553 3.95947 8.78613 4.01562 8.67383 4.12305L5.61963 6.99414C5.48291 7.12109 5.39014 7.27246 5.34131 7.44824C5.29736 7.62402 5.29736 7.7998 5.34131 7.97559C5.39014 8.15137 5.48291 8.30273 5.61963 8.42969L8.67383 11.3081C8.77637 11.4058 8.90576 11.457 9.06201 11.4619C9.22314 11.4668 9.35254 11.4229 9.4502 11.3301Z" fill="#AEAEB2"/>
</svg>
