<svg width="12" height="13" viewBox="0 0 12 13" fill="none" xmlns="http://www.w3.org/2000/svg">
<path d="M2.16211 11.8682L0.470215 12.52C0.382324 12.5542 0.301758 12.5322 0.228516 12.4541C0.160156 12.3809 0.143066 12.3003 0.177246 12.2124L0.873047 10.5791L8.87109 2.5957L10.1528 3.88477L2.16211 11.8682ZM10.7974 3.25488L9.50098 1.96582L10.2407 1.2334C10.4263 1.05273 10.6143 0.955078 10.8047 0.94043C11 0.925781 11.1807 1.00146 11.3467 1.16748L11.5957 1.4165C11.7666 1.5874 11.8472 1.76807 11.8374 1.9585C11.8276 2.14893 11.7275 2.33936 11.5371 2.52979L10.7974 3.25488Z" fill="#8E8E93"/>
</svg>
