<svg xmlns="http://www.w3.org/2000/svg" width="141" height="54" viewBox="0 0 141 54" fill="none">
  <rect opacity="0.35" x="82" y="23.5" width="24" height="12" rx="3.8" stroke="black"/>
  <path opacity="0.4" d="M107.5 27.7812V31.8567C108.305 31.5116 108.828 30.7086 108.828 29.819C108.828 28.9294 108.305 28.1264 107.5 27.7812Z" fill="black"/>
  <rect x="83.5" y="25" width="21" height="9" rx="2.5" fill="black"/>
  <path fill-rule="evenodd" clip-rule="evenodd" d="M65.7705 26.105C68.2576 26.1051 70.6496 27.0271 72.4521 28.6806C72.5879 28.8083 72.8048 28.8067 72.9385 28.677L74.236 27.4135C74.3037 27.3478 74.3414 27.2587 74.3409 27.166C74.3403 27.0733 74.3015 26.9847 74.233 26.9197C69.502 22.545 62.0383 22.545 57.3073 26.9197C57.2387 26.9847 57.1999 27.0733 57.1992 27.166C57.1986 27.2586 57.2363 27.3477 57.3039 27.4135L58.6018 28.677C58.7354 28.8069 58.9525 28.8085 59.0881 28.6806C60.8909 27.027 63.2832 26.1049 65.7705 26.105ZM65.7672 30.3252C67.1245 30.3251 68.4334 30.8369 69.4395 31.761C69.5756 31.8922 69.7899 31.8893 69.9226 31.7546L71.2099 30.4353C71.2777 30.3661 71.3153 30.2722 71.3143 30.1747C71.3133 30.0771 71.2738 29.984 71.2047 29.9162C68.1408 27.0254 63.3961 27.0254 60.3323 29.9162C60.2631 29.984 60.2236 30.0772 60.2227 30.1747C60.2218 30.2723 60.2595 30.3662 60.3274 30.4353L61.6143 31.7546C61.747 31.8893 61.9614 31.8922 62.0974 31.761C63.1029 30.8375 64.4107 30.3258 65.7672 30.3252ZM68.2916 33.1188C68.2935 33.2241 68.2565 33.3257 68.1892 33.3995L66.0125 35.8542C65.9487 35.9264 65.8617 35.967 65.7709 35.967C65.6802 35.967 65.5932 35.9264 65.5294 35.8542L63.3523 33.3995C63.2851 33.3256 63.2481 33.224 63.2501 33.1187C63.2521 33.0133 63.2929 32.9136 63.3629 32.843C64.753 31.5291 66.7889 31.5291 68.179 32.843C68.2489 32.9136 68.2897 33.0134 68.2916 33.1188Z" fill="black"/>
  <path fill-rule="evenodd" clip-rule="evenodd" d="M49.7 24.6814C49.7 24.0483 49.2224 23.5352 48.6333 23.5352H47.5667C46.9776 23.5352 46.5 24.0483 46.5 24.6814V34.6153C46.5 35.2484 46.9776 35.7616 47.5667 35.7616H48.6333C49.2224 35.7616 49.7 35.2484 49.7 34.6153V24.6814ZM42.2659 25.9804H43.3326C43.9217 25.9804 44.3992 26.5059 44.3992 27.1542V34.5878C44.3992 35.2361 43.9217 35.7616 43.3326 35.7616H42.2659C41.6768 35.7616 41.1992 35.2361 41.1992 34.5878V27.1542C41.1992 26.5059 41.6768 25.9804 42.2659 25.9804ZM37.9341 28.6295H36.8674C36.2783 28.6295 35.8008 29.1617 35.8008 29.8182V34.5729C35.8008 35.2294 36.2783 35.7616 36.8674 35.7616H37.9341C38.5232 35.7616 39.0008 35.2294 39.0008 34.5729V29.8182C39.0008 29.1617 38.5232 28.6295 37.9341 28.6295ZM32.6333 31.0748H31.5667C30.9776 31.0748 30.5 31.5994 30.5 32.2465V34.5899C30.5 35.237 30.9776 35.7616 31.5667 35.7616H32.6333C33.2224 35.7616 33.7 35.237 33.7 34.5899V32.2465C33.7 31.5994 33.2224 31.0748 32.6333 31.0748Z" fill="black"/>
</svg>