<svg width="14" height="12" viewBox="0 0 14 12" fill="none" xmlns="http://www.w3.org/2000/svg">
<path d="M0.195801 5.71191C0.195801 5.52637 0.271484 5.36279 0.422852 5.22119L5.27148 0.379883C5.34961 0.301758 5.42773 0.245605 5.50586 0.211426C5.58887 0.177246 5.67432 0.160156 5.76221 0.160156C5.94287 0.160156 6.09424 0.221191 6.21631 0.343262C6.34326 0.460449 6.40674 0.609375 6.40674 0.790039C6.40674 0.87793 6.38965 0.963379 6.35547 1.04639C6.32617 1.12451 6.28223 1.19287 6.22363 1.25146L4.58301 2.92139L1.68262 5.57275L1.52881 5.20654L3.88721 5.06006H13.1523C13.3428 5.06006 13.4966 5.12109 13.6138 5.24316C13.7358 5.36523 13.7969 5.52148 13.7969 5.71191C13.7969 5.90234 13.7358 6.05859 13.6138 6.18066C13.4966 6.30273 13.3428 6.36377 13.1523 6.36377H3.88721L1.52881 6.21729L1.68262 5.8584L4.58301 8.50244L6.22363 10.1724C6.28223 10.231 6.32617 10.3018 6.35547 10.3848C6.38965 10.4629 6.40674 10.5459 6.40674 10.6338C6.40674 10.8145 6.34326 10.9634 6.21631 11.0806C6.09424 11.2026 5.94287 11.2637 5.76221 11.2637C5.58643 11.2637 5.42773 11.1953 5.28613 11.0586L0.422852 6.20264C0.271484 6.06104 0.195801 5.89746 0.195801 5.71191Z" fill="#8E8E93"/>
</svg>
