<svg width="8" height="14" viewBox="0 0 8 14" fill="none" xmlns="http://www.w3.org/2000/svg">
<path d="M7.51904 6.71191C7.51904 6.80469 7.49951 6.89258 7.46045 6.97559C7.42627 7.05371 7.375 7.12695 7.30664 7.19531L1.50586 12.8716C1.37402 13.0034 1.21289 13.0693 1.02246 13.0693C0.900391 13.0693 0.788086 13.04 0.685547 12.9814C0.583008 12.9229 0.502441 12.8423 0.443848 12.7397C0.385254 12.6421 0.355957 12.5298 0.355957 12.4028C0.355957 12.2222 0.419434 12.0635 0.546387 11.9268L5.87842 6.71191L0.546387 1.49707C0.419434 1.36035 0.355957 1.20166 0.355957 1.021C0.355957 0.894043 0.385254 0.781738 0.443848 0.684082C0.502441 0.581543 0.583008 0.500977 0.685547 0.442383C0.788086 0.383789 0.900391 0.354492 1.02246 0.354492C1.21289 0.354492 1.37402 0.417969 1.50586 0.544922L7.30664 6.22852C7.375 6.29688 7.42627 6.37256 7.46045 6.45557C7.49951 6.53369 7.51904 6.61914 7.51904 6.71191Z" fill="#3C3C43" fill-opacity="0.3"/>
</svg>
